<mxfile host="app.diagrams.net" agent="Mozilla/5.0 (Windows NT 10.0; Win64; x64) AppleWebKit/537.36 (KHTML, like Gecko) Chrome/128.0.0.0 Safari/537.36 Edg/128.0.0.0" version="24.8.4">
  <diagram id="f106602c-feb2-e66a-4537-3a34d633f6aa" name="Page-1">
    <mxGraphModel dx="1173" dy="629" grid="1" gridSize="10" guides="1" tooltips="1" connect="1" arrows="1" fold="1" page="1" pageScale="1" pageWidth="1169" pageHeight="827" background="none" math="0" shadow="0">
      <root>
        <mxCell id="0" />
        <mxCell id="1" parent="0" />
        <mxCell id="14" value="&lt;b&gt;Google &lt;/b&gt;Cloud Platform" style="fillColor=#F6F6F6;strokeColor=none;shadow=0;gradientColor=none;fontSize=14;align=left;spacing=10;fontColor=#717171;9E9E9E;verticalAlign=top;spacingTop=-4;fontStyle=0;spacingLeft=40;html=1;container=0;" parent="1" vertex="1">
          <mxGeometry x="450" y="100" width="430" height="430" as="geometry" />
        </mxCell>
        <mxCell id="711" value="Customer Lists Logic" style="rounded=1;absoluteArcSize=1;arcSize=2;html=1;strokeColor=none;gradientColor=none;shadow=0;dashed=0;strokeColor=none;fontSize=12;fontColor=#9E9E9E;align=left;verticalAlign=top;spacing=10;spacingTop=-4;fillColor=#E1F5FE;" parent="1" vertex="1">
          <mxGeometry x="470" y="220" width="370" height="100" as="geometry" />
        </mxCell>
        <mxCell id="712" style="edgeStyle=orthogonalEdgeStyle;rounded=0;html=1;labelBackgroundColor=none;startFill=1;startSize=4;endArrow=blockThin;endFill=1;endSize=4;jettySize=auto;orthogonalLoop=1;strokeColor=#4284F3;strokeWidth=2;fontSize=12;fontColor=#000000;align=center;dashed=0;" parent="1" source="705" target="711" edge="1">
          <mxGeometry relative="1" as="geometry">
            <Array as="points">
              <mxPoint x="420" y="230" />
              <mxPoint x="420" y="270" />
            </Array>
          </mxGeometry>
        </mxCell>
        <mxCell id="705" value="&amp;nbsp; &amp;nbsp; &amp;nbsp; &amp;nbsp; &amp;nbsp; &amp;nbsp;User" style="rounded=1;absoluteArcSize=1;arcSize=2;html=1;strokeColor=none;gradientColor=none;shadow=0;dashed=0;strokeColor=none;fontSize=12;fontColor=#9E9E9E;align=left;verticalAlign=top;spacing=10;spacingTop=-4;fillColor=#FFF8E1;" parent="1" vertex="1">
          <mxGeometry x="250" y="170" width="120" height="100" as="geometry" />
        </mxCell>
        <mxCell id="713" style="edgeStyle=orthogonalEdgeStyle;rounded=0;html=1;labelBackgroundColor=none;startFill=1;startSize=4;endArrow=blockThin;endFill=1;endSize=4;jettySize=auto;orthogonalLoop=1;strokeColor=#4284F3;strokeWidth=2;fontSize=12;fontColor=#000000;align=center;dashed=0;" parent="1" source="706" target="711" edge="1">
          <mxGeometry relative="1" as="geometry" />
        </mxCell>
        <mxCell id="706" value="Analytics" style="rounded=1;absoluteArcSize=1;arcSize=2;html=1;strokeColor=none;gradientColor=none;shadow=0;dashed=0;strokeColor=none;fontSize=12;fontColor=#9E9E9E;align=left;verticalAlign=top;spacing=10;spacingTop=-4;fillColor=#FFF8E1;" parent="1" vertex="1">
          <mxGeometry x="250" y="290" width="120" height="100" as="geometry" />
        </mxCell>
        <mxCell id="714" style="edgeStyle=orthogonalEdgeStyle;rounded=0;html=1;labelBackgroundColor=none;startFill=1;startSize=4;endArrow=blockThin;endFill=1;endSize=4;jettySize=auto;orthogonalLoop=1;strokeColor=#4284F3;strokeWidth=2;fontSize=12;fontColor=#000000;align=center;dashed=0;" parent="1" source="707" target="711" edge="1">
          <mxGeometry relative="1" as="geometry">
            <Array as="points">
              <mxPoint x="560" y="465" />
            </Array>
          </mxGeometry>
        </mxCell>
        <mxCell id="707" value="Marketing List" style="rounded=1;absoluteArcSize=1;arcSize=2;html=1;strokeColor=none;gradientColor=none;shadow=0;dashed=0;strokeColor=none;fontSize=12;fontColor=#9E9E9E;align=left;verticalAlign=top;spacing=10;spacingTop=-4;fillColor=#F1F8E9;" parent="1" vertex="1">
          <mxGeometry x="250" y="410" width="120" height="110" as="geometry" />
        </mxCell>
        <mxCell id="2" value="Architecture: Digital Marketing &amp;gt; DMP / Data Warehouse" style="fillColor=#4DA1F5;strokeColor=none;shadow=1;gradientColor=none;fontSize=14;align=left;spacingLeft=50;fontColor=#ffffff;html=1;" parent="1" vertex="1">
          <mxGeometry x="230" y="40" width="660" height="40" as="geometry" />
        </mxCell>
        <mxCell id="689" value="" style="strokeColor=#dddddd;fillColor=#ffffff;shadow=1;strokeWidth=1;rounded=1;absoluteArcSize=1;arcSize=2;fontSize=10;fontColor=#9E9E9E;align=center;html=1;" parent="1" vertex="1">
          <mxGeometry x="280" y="200" width="60" height="60" as="geometry" />
        </mxCell>
        <mxCell id="693" value="" style="strokeColor=#dddddd;fillColor=#ffffff;shadow=1;strokeWidth=1;rounded=1;absoluteArcSize=1;arcSize=2;fontSize=10;fontColor=#9E9E9E;align=center;html=1;" parent="1" vertex="1">
          <mxGeometry x="280" y="318" width="60" height="60" as="geometry" />
        </mxCell>
        <mxCell id="694" value="" style="dashed=0;connectable=0;html=1;fillColor=#5184F3;strokeColor=none;shape=mxgraph.gcp2.google_analytics;part=1;labelPosition=right;verticalLabelPosition=middle;align=left;verticalAlign=middle;spacingLeft=5;fontColor=#999999;fontSize=12;" parent="693" vertex="1">
          <mxGeometry width="45" height="45" relative="1" as="geometry">
            <mxPoint x="5" y="7" as="offset" />
          </mxGeometry>
        </mxCell>
        <mxCell id="695" value="" style="strokeColor=#dddddd;fillColor=#ffffff;shadow=1;strokeWidth=1;rounded=1;absoluteArcSize=1;arcSize=2;labelPosition=center;verticalLabelPosition=middle;align=center;verticalAlign=bottom;spacingLeft=0;fontColor=#999999;fontSize=12;whiteSpace=wrap;spacingBottom=2;html=1;" parent="1" vertex="1">
          <mxGeometry x="280" y="440" width="60" height="67" as="geometry" />
        </mxCell>
        <mxCell id="696" value="" style="dashed=0;connectable=0;html=1;fillColor=#757575;strokeColor=none;shape=mxgraph.gcp2.list;part=1;" parent="695" vertex="1">
          <mxGeometry x="0.5" width="44.5" height="50" relative="1" as="geometry">
            <mxPoint x="-22.25" y="10" as="offset" />
          </mxGeometry>
        </mxCell>
        <mxCell id="715" style="edgeStyle=orthogonalEdgeStyle;rounded=0;html=1;labelBackgroundColor=none;startFill=1;startSize=4;endArrow=blockThin;endFill=1;endSize=4;jettySize=auto;orthogonalLoop=1;strokeColor=#4284F3;strokeWidth=2;fontSize=12;fontColor=#000000;align=center;dashed=0;" parent="1" source="bN5QILnUEAshqW3xWmmT-748" target="bN5QILnUEAshqW3xWmmT-752" edge="1">
          <mxGeometry relative="1" as="geometry" />
        </mxCell>
        <mxCell id="719" style="edgeStyle=orthogonalEdgeStyle;rounded=0;html=1;labelBackgroundColor=none;startFill=1;startSize=4;endArrow=blockThin;endFill=1;endSize=4;jettySize=auto;orthogonalLoop=1;strokeColor=#4284F3;strokeWidth=2;fontSize=12;fontColor=#000000;align=center;dashed=0;" parent="1" source="bN5QILnUEAshqW3xWmmT-750" target="705" edge="1">
          <mxGeometry relative="1" as="geometry">
            <Array as="points">
              <mxPoint x="740" y="160" />
              <mxPoint x="640" y="160" />
              <mxPoint x="640" y="200" />
            </Array>
          </mxGeometry>
        </mxCell>
        <mxCell id="716" style="edgeStyle=orthogonalEdgeStyle;rounded=0;html=1;labelBackgroundColor=none;startFill=1;startSize=4;endArrow=blockThin;endFill=1;endSize=4;jettySize=auto;orthogonalLoop=1;strokeColor=#4284F3;strokeWidth=2;fontSize=12;fontColor=#000000;align=center;dashed=0;" parent="1" source="bN5QILnUEAshqW3xWmmT-752" target="bN5QILnUEAshqW3xWmmT-750" edge="1">
          <mxGeometry relative="1" as="geometry">
            <Array as="points">
              <mxPoint x="860" y="280" />
              <mxPoint x="860" y="160" />
            </Array>
          </mxGeometry>
        </mxCell>
        <mxCell id="717" style="edgeStyle=orthogonalEdgeStyle;rounded=0;html=1;labelBackgroundColor=none;startFill=1;startSize=4;endArrow=blockThin;endFill=1;endSize=4;jettySize=auto;orthogonalLoop=1;strokeColor=#4284F3;strokeWidth=2;fontSize=12;fontColor=#000000;align=center;dashed=0;" parent="1" source="bN5QILnUEAshqW3xWmmT-752" target="bN5QILnUEAshqW3xWmmT-754" edge="1">
          <mxGeometry relative="1" as="geometry">
            <Array as="points">
              <mxPoint x="860" y="280" />
              <mxPoint x="860" y="370" />
            </Array>
          </mxGeometry>
        </mxCell>
        <mxCell id="bN5QILnUEAshqW3xWmmT-748" value="" style="strokeColor=#dddddd;shadow=1;strokeWidth=1;rounded=1;absoluteArcSize=1;arcSize=2;" parent="1" vertex="1">
          <mxGeometry x="480" y="250" width="160" height="60" as="geometry" />
        </mxCell>
        <mxCell id="bN5QILnUEAshqW3xWmmT-749" value="&lt;font color=&quot;#000000&quot;&gt;Export Ad Data&lt;/font&gt;&lt;br&gt;Cloud Storage" style="editableCssRules=.*;html=1;fontColor=#999999;shape=image;verticalLabelPosition=middle;verticalAlign=middle;labelPosition=right;align=left;spacingLeft=20;part=1;points=[];imageAspect=0;image=data:image/svg+xml,PHN2ZyB4bWxucz0iaHR0cDovL3d3dy53My5vcmcvMjAwMC9zdmciIHhtbG5zOnY9Imh0dHBzOi8vdmVjdGEuaW8vbmFubyIgd2lkdGg9IjIwIiBoZWlnaHQ9IjE2IiB2aWV3Qm94PSIwIDAgMjAgMTYiPiYjeGE7CTxzdHlsZSB0eXBlPSJ0ZXh0L2NzcyI+JiN4YTsJLnN0MHtmaWxsOiM0Mjg1ZjQ7fSYjeGE7CS5zdDF7ZmlsbDojNjY5ZGY2O30mI3hhOwkuc3Qye2ZpbGw6I2FlY2JmYTt9JiN4YTsJLnN0M3tmaWxsOiNmZmY7fSYjeGE7CTwvc3R5bGU+JiN4YTsJPHBhdGggY2xhc3M9InN0MiIgZD0iTTAgMGgyMHY3SDB6Ii8+JiN4YTsJPHBhdGggY2xhc3M9InN0MSIgZD0iTTE4IDBoMnY3aC0yeiIvPiYjeGE7CTxwYXRoIGNsYXNzPSJzdDAiIGQ9Ik0xOCA3bDItN2gtMnoiLz4mI3hhOwk8cGF0aCBjbGFzcz0ic3QxIiBkPSJNMCAwaDJ2N0gweiIvPiYjeGE7CTxnIGNsYXNzPSJzdDMiPiYjeGE7CQk8cGF0aCBkPSJNNCAzaDZ2MUg0eiIvPiYjeGE7CQk8cmVjdCB4PSIxMyIgeT0iMiIgd2lkdGg9IjMiIGhlaWdodD0iMyIgcng9IjEuNSIvPiYjeGE7CTwvZz4mI3hhOwk8cGF0aCBjbGFzcz0ic3QyIiBkPSJNMCA5aDIwdjdIMHoiLz4mI3hhOwk8cGF0aCBjbGFzcz0ic3QxIiBkPSJNMTggOWgydjdoLTJ6Ii8+JiN4YTsJPHBhdGggY2xhc3M9InN0MCIgZD0iTTE4IDE2bDItN2gtMnoiLz4mI3hhOwk8cGF0aCBjbGFzcz0ic3QxIiBkPSJNMCA5aDJ2N0gweiIvPiYjeGE7CTxnIGNsYXNzPSJzdDMiPiYjeGE7CQk8cGF0aCBkPSJNNCAxMmg2djFINHoiLz4mI3hhOwkJPHJlY3QgeD0iMTMiIHk9IjExIiB3aWR0aD0iMyIgaGVpZ2h0PSIzIiByeD0iMS41Ii8+JiN4YTsJPC9nPiYjeGE7PC9zdmc+;" parent="bN5QILnUEAshqW3xWmmT-748" vertex="1">
          <mxGeometry width="30" height="24" relative="1" as="geometry">
            <mxPoint x="15" y="18" as="offset" />
          </mxGeometry>
        </mxCell>
        <mxCell id="bN5QILnUEAshqW3xWmmT-752" value="" style="strokeColor=#dddddd;shadow=1;strokeWidth=1;rounded=1;absoluteArcSize=1;arcSize=2;" parent="1" vertex="1">
          <mxGeometry x="665" y="250" width="160" height="60" as="geometry" />
        </mxCell>
        <mxCell id="bN5QILnUEAshqW3xWmmT-753" value="&lt;font color=&quot;#000000&quot;&gt;Id matching&lt;/font&gt;&lt;br&gt;Cloud Dataflow" style="editableCssRules=.*;html=1;fontColor=#999999;shape=image;verticalLabelPosition=middle;verticalAlign=middle;labelPosition=right;align=left;spacingLeft=20;part=1;points=[];imageAspect=0;image=data:image/svg+xml,PHN2ZyB4bWxucz0iaHR0cDovL3d3dy53My5vcmcvMjAwMC9zdmciIHhtbG5zOnY9Imh0dHBzOi8vdmVjdGEuaW8vbmFubyIgd2lkdGg9IjE0LjUxOTk5OTUwNDA4OTM1NSIgaGVpZ2h0PSIyMCIgdmlld0JveD0iMCAwIDE0LjUxOTk5OTUwNDA4OTM1NSAyMCI+JiN4YTsJPHN0eWxlIHR5cGU9InRleHQvY3NzIj4mI3hhOwkuc3Qwe2ZpbGwtcnVsZTpldmVub2RkfSYjeGE7CS5zdDF7ZmlsbDojNjY5ZGY2O30mI3hhOwkuc3Qye2ZpbGw6I2FlY2JmYTt9JiN4YTsJLnN0M3tmaWxsOiM0Mjg1ZjQ7fSYjeGE7CTwvc3R5bGU+JiN4YTsJPGcgY2xhc3M9InN0MCI+JiN4YTsJCTxwYXRoIGNsYXNzPSJzdDEiIGQ9Ik03LjM3IDIuMDNsLTEuNzIuOTYgMS41MiAxLjUtLjAyIDEuNzMgMS4wMi4wMS4wMi0xLjczIDQuMjQgMi41Ni0uMDEgMS4wNyAxLjc3LjAzVjYuMTFMOS4wNSAzLjA0bC0uMjctLjk0eiIvPiYjeGE7CQk8cGF0aCBjbGFzcz0ic3QyIiBkPSJNNy4zNiAyLjAzbC0xLjQyLjM1LS4yOS42MUwuMzkgNS45Mi4zNiA3Ljk3IDIuMTQgOGwuMDItMS4wNyA0LjMxLTIuNDUtLjAyIDEuNzMuODYuMDEuMDYtNC4xOXoiLz4mI3hhOwkJPGcgY2xhc3M9InN0MSI+JiN4YTsJCQk8cGF0aCBkPSJNNy4zNiAyLjAzTDMuOTUgMCAyLjIxLjk1bDMuNDQgMi4wNCAxLjcyLS45NnptLjcxIDExLjc2bC0xLjcyLS4wMi0uMDIgMS43Mi44MiAyLjQ4IDEuNDItLjEyLjI5LS44NSA1LjI3LTIuOTMuMDMtMi4wOS0xLjc5LS4wMi0uMDIgMS4xLTQuMyAyLjQ1eiIvPiYjeGE7CQkJPHBhdGggZD0iTTcuMTUgMTcuOTdsLTMuNDYgMS45NGgtLjA1bC0xLjY2LS45OSAzLjQ5LTEuOTYgMS42OCAxLjAxeiIvPiYjeGE7CQk8L2c+JiN4YTsJCTxwYXRoIGNsYXNzPSJzdDMiIGQ9Ik0xMC44OC4wOWgtLjA1TDcuMzcgMi4wM2wxLjY4IDEuMDEgMy40OS0xLjk2ek0xMC42MiAyMGgtLjA1bC0zLjQyLTIuMDNoMCAwIDBsMS43Mi0uOTYgMy40NCAyLjA0eiIvPiYjeGE7CQk8cGF0aCBjbGFzcz0ic3QyIiBkPSJNLjMzIDEzLjg5di0yaDEuNzZsLS4wMSAxLjA0IDQuMjUgMi41Ni4wMi0xLjcyLjg2LjAxLS4wNiA0LjE4LTEuNjgtMXoiLz4mI3hhOwk8L2c+JiN4YTsJPGNpcmNsZSBjbGFzcz0ic3QyIiBjeD0iMTMuMzgiIGN5PSIxMC4wNCIgcj0iMS4xNCIvPiYjeGE7CTxjaXJjbGUgY2xhc3M9InN0MiIgY3g9IjEuMTQiIGN5PSI5Ljg4IiByPSIxLjE0Ii8+JiN4YTsJPGNpcmNsZSBjbGFzcz0ic3QyIiBjeD0iNy4zMiIgY3k9IjcuOTkiIHI9IjEuMTQiLz4mI3hhOwk8Y2lyY2xlIGNsYXNzPSJzdDIiIGN4PSI3LjIzIiBjeT0iMTIiIHI9IjEuMTQiLz4mI3hhOzwvc3ZnPg==;" parent="bN5QILnUEAshqW3xWmmT-752" vertex="1">
          <mxGeometry width="22" height="30" relative="1" as="geometry">
            <mxPoint x="19" y="15" as="offset" />
          </mxGeometry>
        </mxCell>
        <mxCell id="15" value="" style="shape=mxgraph.gcp2.google_cloud_platform;fillColor=#F6F6F6;strokeColor=none;shadow=0;gradientColor=none;" parent="1" vertex="1">
          <mxGeometry x="470" y="110" width="23" height="20" as="geometry">
            <mxPoint x="20" y="10" as="offset" />
          </mxGeometry>
        </mxCell>
        <mxCell id="bN5QILnUEAshqW3xWmmT-750" value="" style="strokeColor=#dddddd;shadow=1;strokeWidth=1;rounded=1;absoluteArcSize=1;arcSize=2;" parent="1" vertex="1">
          <mxGeometry x="665" y="130" width="160" height="60" as="geometry" />
        </mxCell>
        <mxCell id="bN5QILnUEAshqW3xWmmT-751" value="&lt;font color=&quot;#000000&quot;&gt;Relevant Users&lt;/font&gt;&lt;br&gt;Cloud Storage" style="editableCssRules=.*;html=1;fontColor=#999999;shape=image;verticalLabelPosition=middle;verticalAlign=middle;labelPosition=right;align=left;spacingLeft=20;part=1;points=[];imageAspect=0;image=data:image/svg+xml,PHN2ZyB4bWxucz0iaHR0cDovL3d3dy53My5vcmcvMjAwMC9zdmciIHhtbG5zOnY9Imh0dHBzOi8vdmVjdGEuaW8vbmFubyIgd2lkdGg9IjIwIiBoZWlnaHQ9IjE2IiB2aWV3Qm94PSIwIDAgMjAgMTYiPiYjeGE7CTxzdHlsZSB0eXBlPSJ0ZXh0L2NzcyI+JiN4YTsJLnN0MHtmaWxsOiM0Mjg1ZjQ7fSYjeGE7CS5zdDF7ZmlsbDojNjY5ZGY2O30mI3hhOwkuc3Qye2ZpbGw6I2FlY2JmYTt9JiN4YTsJLnN0M3tmaWxsOiNmZmY7fSYjeGE7CTwvc3R5bGU+JiN4YTsJPHBhdGggY2xhc3M9InN0MiIgZD0iTTAgMGgyMHY3SDB6Ii8+JiN4YTsJPHBhdGggY2xhc3M9InN0MSIgZD0iTTE4IDBoMnY3aC0yeiIvPiYjeGE7CTxwYXRoIGNsYXNzPSJzdDAiIGQ9Ik0xOCA3bDItN2gtMnoiLz4mI3hhOwk8cGF0aCBjbGFzcz0ic3QxIiBkPSJNMCAwaDJ2N0gweiIvPiYjeGE7CTxnIGNsYXNzPSJzdDMiPiYjeGE7CQk8cGF0aCBkPSJNNCAzaDZ2MUg0eiIvPiYjeGE7CQk8cmVjdCB4PSIxMyIgeT0iMiIgd2lkdGg9IjMiIGhlaWdodD0iMyIgcng9IjEuNSIvPiYjeGE7CTwvZz4mI3hhOwk8cGF0aCBjbGFzcz0ic3QyIiBkPSJNMCA5aDIwdjdIMHoiLz4mI3hhOwk8cGF0aCBjbGFzcz0ic3QxIiBkPSJNMTggOWgydjdoLTJ6Ii8+JiN4YTsJPHBhdGggY2xhc3M9InN0MCIgZD0iTTE4IDE2bDItN2gtMnoiLz4mI3hhOwk8cGF0aCBjbGFzcz0ic3QxIiBkPSJNMCA5aDJ2N0gweiIvPiYjeGE7CTxnIGNsYXNzPSJzdDMiPiYjeGE7CQk8cGF0aCBkPSJNNCAxMmg2djFINHoiLz4mI3hhOwkJPHJlY3QgeD0iMTMiIHk9IjExIiB3aWR0aD0iMyIgaGVpZ2h0PSIzIiByeD0iMS41Ii8+JiN4YTsJPC9nPiYjeGE7PC9zdmc+;" parent="bN5QILnUEAshqW3xWmmT-750" vertex="1">
          <mxGeometry width="30" height="24" relative="1" as="geometry">
            <mxPoint x="15" y="18" as="offset" />
          </mxGeometry>
        </mxCell>
        <mxCell id="bN5QILnUEAshqW3xWmmT-754" value="" style="strokeColor=#dddddd;shadow=1;strokeWidth=1;rounded=1;absoluteArcSize=1;arcSize=2;" parent="1" vertex="1">
          <mxGeometry x="665" y="340" width="160" height="60" as="geometry" />
        </mxCell>
        <mxCell id="bN5QILnUEAshqW3xWmmT-755" value="&lt;font color=&quot;#000000&quot;&gt;Reference Table&lt;/font&gt;&lt;br&gt;BigQuery" style="editableCssRules=.*;html=1;fontColor=#999999;shape=image;verticalLabelPosition=middle;verticalAlign=middle;labelPosition=right;align=left;spacingLeft=20;part=1;points=[];imageAspect=0;image=data:image/svg+xml,PHN2ZyB4bWxucz0iaHR0cDovL3d3dy53My5vcmcvMjAwMC9zdmciIHhtbG5zOnY9Imh0dHBzOi8vdmVjdGEuaW8vbmFubyIgd2lkdGg9IjIwLjAwMTA0NTIyNzA1MDc4IiBoZWlnaHQ9IjIwLjAwMTA0NTIyNzA1MDc4IiBmaWxsLXJ1bGU9ImV2ZW5vZGQiIHZpZXdCb3g9IjAgMCAyMC4wMDEwNDUyMjcwNTA3OCAyMC4wMDEwNDUyMjcwNTA3OCI+JiN4YTsJPHN0eWxlIHR5cGU9InRleHQvY3NzIj4mI3hhOwkuc3Qwe2ZpbGw6I2FlY2JmYTt9JiN4YTsJLnN0MXtmaWxsOiM2NjlkZjY7fSYjeGE7CS5zdDJ7ZmlsbDojNDI4NWY0O30mI3hhOwk8L3N0eWxlPiYjeGE7CTxwYXRoIGNsYXNzPSJzdDAiIGQ9Ik00LjczIDguODN2Mi42M2E0LjkxIDQuOTEgMCAwIDAgMS43MSAxLjc0VjguODN6Ii8+JiN4YTsJPHBhdGggY2xhc3M9InN0MSIgZD0iTTcuODkgNi40MXY3LjUzQTcuNjIgNy42MiAwIDAgMCA5IDE0YTggOCAwIDAgMCAxIDBWNi40MXoiLz4mI3hhOwk8cGF0aCBjbGFzcz0ic3QwIiBkPSJNMTEuNjQgOS44NnYzLjI5YTUgNSAwIDAgMCAxLjctMS44MlY5Ljg2eiIvPiYjeGE7CTxwYXRoIGNsYXNzPSJzdDIiIGQ9Ik0xNS43NCAxNC4zMmwtMS40MiAxLjQyYS40Mi40MiAwIDAgMCAwIC42bDMuNTQgMy41NGEuNDIuNDIgMCAwIDAgLjU5IDBsMS40My0xLjQzYS40Mi40MiAwIDAgMCAwLS41OWwtMy41NC0zLjU0YS40Mi40MiAwIDAgMC0uNiAwIi8+JiN4YTsJPHBhdGggY2xhc3M9InN0MSIgZD0iTTkgMGE5IDkgMCAxIDAgMCAxOEE5IDkgMCAxIDAgOSAwbTAgMTUuNjlhNi42OCA2LjY4IDAgMCAxIC4wMDctMTMuMzYgNi42OCA2LjY4IDAgMCAxIDQuNzI3IDExLjQwM0E2LjY4IDYuNjggMCAwIDEgOSAxNS42OSIvPiYjeGE7PC9zdmc+;" parent="bN5QILnUEAshqW3xWmmT-754" vertex="1">
          <mxGeometry width="30" height="30" relative="1" as="geometry">
            <mxPoint x="15" y="15" as="offset" />
          </mxGeometry>
        </mxCell>
        <mxCell id="FppRjTaLhj4qUiKoTou8-720" value="" style="shape=image;verticalLabelPosition=bottom;labelBackgroundColor=default;verticalAlign=top;aspect=fixed;imageAspect=0;image=data:image/png,iVBORw0KGgoAAAANSUhEUgAAAMgAAADICAYAAACtWK6eAAAAAXNSR0IArs4c6QAAHdBJREFUeF7tXQuYHFWV/k91ZhINsJAsuCoJIKKAPAxvXEH9WGRBAuLaXT1dPSHAdHUCRCWuuOArIH7q7kpc+SCZmgkEpqvT1e1iMBAEH6C4gDySBZfggqyYsLqCBFQCZGa6zuZ2Ohhiwtxb/ayqe7+vv8njP/ee85/7T1VX3XsuQTfNgGZglwyQ5kYzoBnYNQNaIHp2aAbegAEtED09NANaIHoOaAaCMaCvIMF401YxYUALJCaJ1mEGY0ALJBhv2iomDGiBxCTROsxgDGiBBONNW8WEAS2QmCRahxmMAS2QYLxpq5gwoAUSk0TrMIMxoAUSjDdtFRMGtEBikmgdZjAGtECC8aatYsKAFkiLE53JXLBflYxDGcZ0g3kaE01n8HQDNE38FB8CTQMwHcAedXf+COB5Bm8k0PPi42/7M/PzPtFGgv98gv11xeKyX7c4hFh3rwXS5PSb59oHYoxPAOiDMPAhMA5s8hCv747wFHzcBfDd6KH7vRudp1o6Xsw61wJpMOFm/4WHgKsngPl4ACcBOLTBLhs1XwfgHhD9DJS43xu57vFGO4yzvRZIwOynrdw5AF3AwEcCdtEWMwJuA3hZyR36TlsGjNggWiCKCTUzuTSILgDwd4qmnYb/AMzLvOJQqdOOhGl8LRDJbJnZ/BywPwCQuI0KceN7QMawVxi8KcRBtM11LZAJqE5ZuRyhdsUQ3zGi1H7G4GVld2goSkE1OxYtkF0w+jFrYN9JoMUE+nizSe+m/hj87XHwJTe7w890k1/d4osWyE4ysfV2ir8K4G3dkqgW+/EbEF2mb7v+kmUtkB04SVn2MgLOb/GE7MruGbi+7DridlK3OgNaIHUikslkr9G71yMADo757PiFP/rCkZVKZTTmPNTC1wIBkOzLn2gYfG8bJ0SVgZcJ2ATCJjBeBmgT2N8IoscA9ADYh5n3JqK9QdgbjH3q/94WN32f3ldZMXhfWwbr4kFiL5Bk8oJpRm/i+RblaBOAdQA9BuJ1TPSYMUbrSqWlTwcZL9k/cACYDk+ADgPTYQw+HMBhQfqSsfFHq9MrlWUbZbBRxcReICnL3kDAvk1M8Bpm3Ebkr/bc4fub2O8uu0r1588g3/8IQGcA2L9ZYzLwTNl1ZjSrvzD2E2uBmFm7DEayCYm7HcCdPujOijso1kJ1rCX77PcT4cNEtSUwRzXsCKHiFZxUw/2EtIPYCiRt5b7MoM83mLc1DFpcdgcLDfbTdPPTFyyYvMfGzZeAeSHE95gGGoGvKrlDX2igi9CaxlIgqYz9CSL8W+CsMT8Hoqv/OG3y4tuvuWZz4H7aYFhbfj/OCwG6sJHhmPHJctH5ViN9hNE2dgJJZQf6iI1i8GTxdZhEV4dt30U6O/BBn41LCDgraOxMfqZcGF4R1D6MdrETiGnZDwE4OlCyiD/tFYauDmTbJUYpy76UgKsCPjJ+2HOdY7oklLa4ESuBmBnbBmEwALM+A+eXXefGALZdZ5LOzj+Jefx6gN6p7Bwj7xUdR9kupAbxEkiQqwfhOTCf67lD4klVZFq63z6eq1gNgtgPr9JidRWJjUACXj0epyrNKZUGxW1Z5FoymzvLYLpFObAYXUXiI5AAVw8ffrLiDn9beQKFyCCdyX+Wib+m6HJsriKxEEiQqweDhsruoK04cUIJD/TCNCZXkXgIRP3qsWGMqyfdHJOaU5nM/HdUqXo3AJVlJbG4ikReIKlsvo+Y1d57EH/KKwwFf5EYwuuImc19EkzfVHGdQOmSO+ip2IQNG3mBmNncMLi2p1y2/cRznQ/IgqOEMy37xwBOlo2JgWvLrnOxLD6MuOgLxLJ/pbLClYjPLhWGvhvGZDbqczqbO4tVnmoRHvUKzpGNjtvN9pEWiFhewWzcJZ0Axlqv6DS+AlZ6wO4Dmhl7DQizpD1L8Lu9m4aekMaHDBhpgaQyua8R0WcVcvJ5z3W+ooCPHNS07M9h61IUqcag+WV3cKkUOISgSAvEzNgPgiC/dsjwD/VGhmNdy9bsHzgEvqGyp8XzXCcdwrkv5XJkBZKcM+/tRtWXrvVEwH0l13mfFGsRB6Ut+14GTpQM8zee67xdEhs6WGQFYmbtATCkqwYyYXG54CwMXQZb4HAqa19NjEtkuzZ8/8gVK4YflcWHCRddgVj2vwP4mHwy+IyoLUiUj/31SNPKnQ7Qamn7CL83iq5AFJ/GeK4TWS6kJ/p2QNOyWdaOCItLEb36RnZSmBl7PUh66cR6z3X2k50QccCZli2OdpspGeuI5zpzJLGhgkVXIJYtalK9WSYbRPhpqeCE/FgDmUjlMemsfQ8z3i9lQbTaKwx29UFCUnHsBBRJgcyebb/5zXtACES2FT3XsWTBccCZlu0CyMjESuAHSu5Q1I6HqIUeSYGk0xfO4MT4epnk1jFf81znMgV85KGmZYvq9v8kGej/eK7T2sNKJR1pNiyiApk3ixP+GmmyCJd6BedfpPExAJpZ+zNg/LNkqH/wXGdPSWyoYJEUSLJv4FTDMO6UzUTUl0vI8rA9LmXl5xF4iaztX01Fr+M4Y7L4sOAiKZD6QZvy9ZuYs15xSNxz61ZnwMzkLBBJV4wcI7zt5oLz26gRGFGB2BeDcI1sstigs8ojg6tk8XHApfrzs8ln+WX/hnG4N7L0v6LGTSQFksrYi4jwJdlkEfkfKhWGxZZT3eoMqG4ViCqH0RSIZX+agH+Vne3M/Pfl4tAdsvg44FKZ3GlE9D3ZWIn4b0uFoXYeQiTrWkO4SArEzNp5MKT3KMR5F+GuZo9qzSwy6NjSSPTqh0VSIGnLzjAg/6WbkfKKTqWhXzURM05b+Y8zWJ4Tovd6hUFxxmOkWjQFori3mkH93XjGRydnmpmdZ4F96adYiOhms0gKJJWxP0SEH8lOMGIaKBUHl8ni44BLW7nzGSTPySS8M2xHQsjkMZICMa3csVvO63tAhoCtGL7Ic4euk8dHH2lm7flbTtaV5sQ3sF9lxFFZ3hMKEiMpkL4++2DfgPTecmIsLBWdxaHIWJucNC37UwCkOfF7Jr21svy6/2uTe20bJpICsayBfcdhbFBg8TLPdVQLOCt0Hz6oalFrf0p1emVZ9I6MjqRAPjp37p6Tx3pfkJ2WzLiiXHQWyeLjgDOt3BcBukI21lcmj+/x3euv/5MsPiy4SAokmUwmjN69xqWTQLjBKzjnS+NjAExZuSUEmicb6h+nTZ7S7QeaysayPS6SAhEBmln7WTCkjj8moh+VCoOnBCEwqjamZYuiDafLxucVBg0QSe9jl+2307joCsSy1wJ4rxTBhKe8gqN+Xp9U5+EEmZYtFh6+R9L7yNbGirBA8qsAPlMyweNbSo72SGJjATMtW3yf2E0m2Cjv6Y+wQGyxFisvk2CB8RPGvpWblv6vLD7KuDlzLpq+uTr2e+kYiW7yCoPnSuNDBIysQFKZ/OeJ+MuyuYjqalTZ+LfHmVn7KDAelrVlxqJy0ZF+4iXbbzfgIiuQdGbeXCb/BlmSmShTLgzK70KU7TiEuLSVO4dBN8u6TsxzSsWhEVl8mHCRFUhfNn+qzyy9Lx2AfllYn7mqb9EZxvvL7tL/CNPEl/U1sgIx+y88BP64Shl/XRtrm0Cy9iAY0if89hDeVojgfnRBR2QFYlkL9hjH5j/I/qbY8urkcc91DlXARxZqqp0K/JLnOrtHlYzICkQkLGXZGwjYVzZ5m3tG91q5fPmLsvio4lQKVwO413Odv40qFxEXSL5C4I/LJi+qhQdk4xe4ZGbgaIOMh2RtGLy07A7Nl8WHDRdtgWRy/0hEKhUTL9lSIVDprPCwJXwif82MbYMwOBFu2/8TaH5Jn1EoS1d34VR3FgK03HMHz+uuKNrrjan4BT3q748ifQXJZObvVaXqRoUp9p+e68gfgazQcVigil/Q4Y9O2r1Sue6lsMSn6mekBSLIMLP2g2D5k259mnRQpXDdL1WJjApe6Qt6DBZ5xkEgSs/0AfqE5w5Kly2NijBqv0ys3JkASZdgZdB3yu6gwjmQ4WMrDgJRKj4A4HbPdc4IXyob9zht5ZawwiapOOzEjLxA0v328ezjfpXpE9fbLNX3Rj7oPRV3UGW1gkoaugIbeYEIllNW7iECHS3PePxus1KZ/MlE/GN5jvCY5zqHKeBDCY2HQDL2V4hwuUKGYnebZVr2VQA+J8tRHG6vBBcxEYjyb0fE7TbLtGxRaO9YWYH4XD2+UlymUJxPtufuwsVCIFuf0Ng/ByB9S0CEL5YKjvSGq+5Kq5o3ZiZ/NohXKljF4vYqNleQukDEeSGflp8E/Gt/1D+qUoleMbQdOTAtW5yN8mF5bhCbU4FjcwUJsIEKRPSZUmFQ+iAehQnWNVDl8xwBGIZ/yoqRYeni4F0TbABHYiOQ+lXkCQAHKfD0C3906lGVyuJXFGxCBTUtWzy5OlnaacITXsF5tzQ+5MCYCSR/BcBfVMkZAReXXOdaFZuwYM1s/jwwX6/ib1yeXm3jJFYCSfbbMxM+1jAwXXpSMNZ6RecoaXyIgKpPrgD8podwTFS31+4sdbESSP026+sALlWcx1/xXOfzijZdDVd97yGCidvVI1ZPsbbNVnNO7l2oYg1AU9VmMM/23KFb1Wy6E626KLEeReyuHrEUiAg6Zdn/RsAnFKfvI6OJnlO+c9O1zyvadRX8nDkXTe+tjv0QwJEqjjHji+ViPN4Lbc9L7G6xRPB9fQNH+IYhKgdOUpkkBF5aCvn+a9UVu3V+fumPVo+PwzuhHedDLAVS/y6iVLv3NeKIzvUKgzepCKtbsGY2PwfMN6r6w4yF5ZgeURdbgaTT8/bnhH8XgP1VJwxCeK56qi8/mwz+dwCqVewf8UdfOK5SqYwq8xQBg9gKROQuncnNZSLp+r2vy3eIRJK28qcwWNTa3UN5zhKd7xUGg3GkPFj3GcRaIFtvtfI3ADw3UGpCIJL6hjGxEPFvlGMkVLyCk1K2i5BB7AXS0K2WmAhdLBKzf95h5PMtDH5HgDn7ElWrJ5dKy8RJXbFtsRdIw7daNY3gs2XX+edumkWpbO4fiEn4FEQcYNDlZXfwq90UUyd80QKps97QrdbWK0mJ/EmXlkrXqZzP3pKcB3lLvoMjP/Bc59SWOBeyTrVA6glLJpO9Ru+edwD0wQZy+N9EfGmpMPTdBvoIbCpuqcD8dTAHrspCoOerlDghzrXBtk+AFsh2bJwzZ8703vEp94LwrsCztENrllLZgT6DjW8w8NZGfAf4DM8dur2xPqJjrQWyQy4zmQv2q1JCbM9t7MwLxhKv6FzYjqliWvkFAH+r8bHiV81lIs60QHbCkNl/wWHwayJptHme66Qb7eSN7FMZexERvtT4GFocO+NQC2QXM8u0Bk4AjPsanHgvv/xH7L1qlfNyg/3s0ty08j8B+KSG+u/iR9UNxdUEYy2QNyCxr88+2DfweCM8+77/4cqK4e830seubD86d+6ek8d6X2ioby2ON6RPC2SC2XX66Qsm7zFt8z0qNaO277KVm4zUzz/5s2cEPMuMi72iU2lIYBE31gKRTLCZyX0DRAsl4a/BWiuQ3GlE9D1VnwDc5TMvrBSH/jOAbaxMtEAU0m1m8wvB/A0Fk5ZuUw2yM5CBb5Vd55MqMcQZqwWimP20lTcZXJI1a+UVJG3NO4fhi1W6Uo0Aq+Q6RSmwBtUY0AJRnAjp7MAHmQ2xj0SqtVYgamLVp/hKpex1IC0QRc66SSApK58l8IhsCFogskz9GacFoshZdwkkdz6BlsmGoAUiy5QWyIRMiRNyx2n0UKLEIezjACLsT8ABDBygsvmolbdYZtbOgyH21su2/yPgVyw+jKfJED+rj0/i3nXF4pLG3qfIehAynL6CAEj2DxyQqNIHQHQMA4cCOBDAzGbksqUCsXILAGrCGqxapOsBPEXAOjA/VE3wjysjw79qBgdh7iOWAkla9uEJpuOY8H6AxfJ29cINkllvqUACPHaWdHsb7Okty//vJsZPq8QPVFynGevTFF3oLDwWAslk5h1XNaonguk4AO9rpSB2TGcrBZLO5j/LzF9r4xR6ess5IveC+IGEn7ivWFyqT5hqI/lNHSqZyb3XIPoIALF5SIiiI621ArG/wIwrOxLY1kHvBbDaZ74tqm/lI3UFSVr5Qw3ij2zdUdfQzsCmzTliPq9UHFretA6368jM5CwQFVrRt3qffDeIVvtMt0XpaOjQCySTuWg/H2NnM0FcLVSOEVOfAwEsjETiyBU3LXk0gOmEJlsLcdN/TwhsP+BOYtxmoOeWYvHaX7d/+OaNGFqBpDK50wyiFAOibtNuzaOkeT0RcF/JdVp6e2dm7TIYyeZ53dSeXiKg7DOXy8UhcQ5i6FqoBPKxrP3WHnAKTEIULZ14TclkG/ZaJPvyJxoGi+8C3d7El/vyGKh8c8H5bbc7u82/UAhE7HsAcYqEMAjTup5cxkYCf6pUHJJeBtJITPXSosPtfDoX2F/GRiYug6lcLjrSa9oCj9egYVcLxOy/8BDyxy9nINtgnO0w/+WW27114rbKSCRWt+p7x64CqZX88f0zGThxy22NeNn5znYE3dAYzDehh670bnSeaqifFhp3rUDSGfsSJlwO4K9bGL9q1+Jt85MMfpIIT4LxhE+TnnzPO9/y5KJFi3zVzlqJX7RokfHYL393kMHjB4kyRsw4iEDihF/xacoqgWb4T8AzzPiyV3ScZvTX7D66TiDJvtwHDIOEMDr5RGojAFGTdg2Tv5bZ+K+pPaNPLl++/NVmJ6AT/c2dO3fKprHeg4j8w4iNWQDEIaXiZydvXz0fdGW3PSLuGoGcddb5u79p90lCGP/UzklDwG+ZeS2ROLcwsQZVrC2Vloo3xrFropA3EkIo1aOYcRQRzWq8EJ0Sjb8H6ErPHbxGyaqF4K4QSNIa+DjB+BwB721hrNt3/RNiXlU1qqsqheu78T1Cm2iYeJhk9vx3J/zEbCaaDeDkiS2agCCs9H2+ohvezndcIGbGvgaEi5tA6xt18SoIq8inOxJUvcN1h59p8XiR7N6yBvatcuI0Nvg0MIRgprQw0Be37Hi9wnOdb7ZwjAm77qhATCv/PYBPm9DLYAAhipXMdBv3jt5RueGG54J1o612xkDyvPP2ptHe06i2tAcfbaFYWl6d8o0y3DGBNK9k5o7h8d0A3UJVY2Vcv0u0W9L1Q4g+CvDZrVgDx8C1Zddp9V3GTmnriEBaII5fAFgJ+Ld47vD97Z4gerw/M1Av2Xo2ULuqHNwsbgh0Vckd/EKz+pPtp+0CMbP2ABhDsg5OgHsYDKdbn6E3KcbQdmNmbBsEG8DRTQmCkPMKjlgx0LbWVoHUCx6sBvCmBiPUwmiQwHaaN1EorxD5Z5QKw3e3y/+2CsTM2A+CcEzg4JgfBehafcUIzGBHDetCEWemHNmAIw97rhN8DikO3DaBpC07w4Cr6N/28BHD9z+zYsXw7xroQ5t2mIFk8oJpid7ElQxcFNgVRr5dvyTbJpBGHukS82dKxaF/DUyoNuw6BlLZfB8xi+3CQRZVtu0q0haBqBZb2y6bjwFY6LnOnV2XYe1Qwwwk++2ZBuNqMP5BubM27LURPrVFIKaVuxYg1fP6HvNBqW5bvKacSG3whgwkk5e8yejdJE4F/jslqggVr+CIjXMtbe0RSCb3LIj2VohEi0OBrLBD0+mL38aJ0ZWqhxR5rtPy+dvyAUQJzypVxfJxhcbHee7QgwoGGhpyBkwrdyxASnW2/N6xfVq9hKjlAjHNgUMwyVgnnT/m1V5xSFQo0S1mDJiZ3G0gEnXMpJoPek+rb8FbLhDVL+i6ArnU3IgkqBvnSssFUq9wKHbnyTXCPK/gDMqBNSpKDKguQ/KZZ7V6z0jLBVJf6SldJZwIi0sFR/mwzChNlLjGYlr21wFcKhs/VY0DWr1iu+UCUT7Lm2i1VxjU30FkZ0mEcCnLvoWAs2RD2twzutfK5cvFxqqWtZYLRHhuWjarRNBrvLLbyMjIJhUbjQ03A+a59oEYhzheQXohayQe89YFIlbwni6bwlYWfJb1QePay4Bp2Z8DcJXCqLd7riP9xEuh39dB23IFqde4ulraSf2oV5qqqABNyxZXj8Nk4yHGwlLRWSyLD4pri0AC1o/9huc6/xg0MG0XHgZMyxZXDnEFkW6+T++rrBi8T9ogILAtAqnfZokjAA5X8bNdJKj4pLHNZcC0cmcCtEqx1597rnOEok0geDsFIgrCfVXVS3+0Or1SWaa4VEV1FI3vBAPpOfNmcdUXe4QOURz/Ms912nL0XNsEUlva7ENcRf5KkQxQFSeUSs7PVO00vnsZSPYNnJowjBsDVG78g2/giMqII+okt7y1TSC126ysfR0Y84NEpZ9sBWGtO23SmdxcJloSqJYWYYlXcFS3TgQmoq0CyWTyB1WJ7wHwlmAe03Kq0hWtfnsazDdtNREDW1dV8JcAnjsRdhf//7sE00nF4uCTAe2VzdoqkNpVxLI/teU2q5HHc0+D8dV27UlWZlQb7JSBesGGyxo85OeSdpcibbtA6iL5vvIOsr+kXZf+CYEYm1jy5wee65za7pA7IpB0f/4Y9vnW4Ldar6PpYWZayfBvbfXKznYnJ6zjiRXcBONMIhbVFZtRNO53ZNCZpZHBh9rNSUcEIoJUXfsvScwPAdyKSVjVzcd6ScYSKlh9LZWo+H4mgFOa6Xwn9wh1TCAtFInoulo/7uDWngStGhlZ+mwzE6b72spAf/+8fcaqPJsNPrN+HEKi2dx0Uhwilo4KRDjQN2f+EX61+kizid2uvxcZdBeYHzWIH6ka9HC7nqG3MKaOdC3eZSV8PtpnOhJERxD4QwD2bJUzPiUOrhSWdPSAo44LRJCbtPKHGuAfNek7ycT5IjzFTI+CsYaIH0hw4sFicckLExvGB1EvtnEsMx0HEsex8RFgHNgeBugew68mu6GKZlcI5DWREApgFodJdqI9CdA6MG+AgfXEtB7kb0gwr4/qiVS1E6OIZoKNGUw8Ez5mgmgGwOIYaXEabtsbg7/9ylQ6d5XjvNz2wXcyYNcIpCaS5IW7JXrHLmeQeF7eNY2ZmYjWA+LDG4CagF5k8CaC8RLD3yQ+QOIlRnXTJDY2GYb/EnPPprGx32+qVCqjrQgmmUz29vT89VSisam+b+w2Tv5UQmIqUN2NYEwVH4a/G4GmMrG4FZoJ1AQwk5lnElE35b8rjlzbMU/dRNBrvqWzAycxG0Ik0pusWjEBm9hnFaBRgMcACLFs/RBG4WPrv4k/1zCicS8YvQB6YaDntT+Lv9c+1FPDAE3/UtzEmOW76qJDO0MhkG1ONvElk3yyNLKdDHT9y96uvILsmCEtlHbO2baM1fXC2MZCKATy+isK97XioMi2TIvYD8J3g2lFmNbRhUog2+bX1rfwlAQjqVgUO/ZTtO0EMD8HQoWIK+08Oq1ZcYZSINuCF2d1G6OTkgCJ5Q1R+ULfrNx2up/bAb7V7x2vtLrAdCsDDbVAtifmY9bAvj1kzK4vedBiaeWs2XXft4slPmPsr7rZHX6mMy40d9TICGR7WsT7AaN3zw8T0SyfaRah9vJx/+ZSF/venmbQWoN4LTOv9UdfvLNV73s6yXQkBbIzQsXSCU6Mzar6xiwhnPobe/HGWLeJGVgHopoQEoa/lqo9a+OyNCc2AtnZHFiwYMHkZzeOzwJVZxHTLIZ/+NY3zXj7xHMmkoj/FSsFCMbPmXgtOLF2n2mT1l5zzTWbIxmtRFCxFsiu+Fm0aJHxxBPPzfCNzbV1SrX1ScwzmMVaJcwgYAYD0yX47RoIAc8zsAGMDURYD6INtXVn5G8w/Mnr3/WuvTcsWrTI7xqHu8QRLZCAibBt+81/+hNmIkEzmP0ZPtNMIkxmwmRimszgKbWf5E8mosns8xTxc0ttMPGZUv+59e+MKSDx77X/F0tNNoOxGYRXAYjf3ts+tb8z82Yy6NXaTzY2M/FmAr1a+8ni//GqQbyByNiAKm/YfXesd7pk8V9AujtmpgXSMer1wGFgQAskDFnSPnaMAS2QjlGvBw4DA1ogYciS9rFjDGiBdIx6PXAYGNACCUOWtI8dY0ALpGPU64HDwIAWSBiypH3sGANaIB2jXg8cBga0QMKQJe1jxxjQAukY9XrgMDCgBRKGLGkfO8aAFkjHqNcDh4EBLZAwZEn72DEGtEA6Rr0eOAwMaIGEIUvax44x8P+QY2VfXAeAmgAAAABJRU5ErkJggg==;" vertex="1" parent="1">
          <mxGeometry x="282.5" y="202.5" width="55" height="55" as="geometry" />
        </mxCell>
      </root>
    </mxGraphModel>
  </diagram>
</mxfile>
